<?xml version="1.0" standalone="no"?>
<!DOCTYPE svg PUBLIC "-//W3C//DTD SVG 20010904//EN"
 "http://www.w3.org/TR/2001/REC-SVG-20010904/DTD/svg10.dtd">
<svg version="1.0" xmlns="http://www.w3.org/2000/svg"
 width="640.000000pt" height="640.000000pt" viewBox="0 0 640.000000 640.000000"
 preserveAspectRatio="xMidYMid meet">
<metadata>
Created by potrace 1.11, written by Peter Selinger 2001-2013
</metadata>
<g transform="translate(0.000000,640.000000) scale(0.100000,-0.100000)"
fill="#000000" stroke="none">
<path d="M31 4271 l0 -399 93 0 c52 1 98 -2 103 -5 6 -4 10 -252 9 -674 l-1
-668 -90 0 c-50 0 -95 -4 -102 -8 -9 -6 -12 -104 -12 -392 l1 -385 638 0 638
0 -2 393 -1 392 -92 0 -93 -1 0 128 0 128 325 0 325 0 -2 381 -3 382 -323 1
-322 1 2 165 3 165 180 0 180 0 1 -80 c1 -44 2 -85 3 -92 1 -8 114 -11 436
-11 239 0 436 3 436 6 1 4 2 224 3 490 l1 482 -1167 0 -1167 0 0 -399z"/>
<path d="M2466 4278 c1 -216 2 -396 3 -399 0 -3 41 -5 91 -4 49 1 93 -1 97 -4
13 -9 10 -1341 -2 -1342 -5 -1 -50 -2 -100 -3 l-90 -1 0 -393 0 -392 637 0
638 0 0 393 0 393 -87 -1 c-49 -1 -92 0 -98 2 -8 3 -11 572 -5 1299 l0 50 95
-1 c62 -1 95 2 96 9 0 6 1 185 2 399 l2 387 -640 0 -640 0 1 -392z"/>
<path d="M3835 4275 c0 -256 4 -395 10 -396 6 -1 47 -2 92 -3 45 -1 84 -4 88
-8 4 -3 6 -357 6 -785 l0 -778 85 -90 c47 -49 152 -160 233 -245 82 -85 164
-172 183 -192 l34 -38 531 0 530 0 74 78 c226 238 360 380 406 430 l53 57 2
785 3 785 95 0 95 0 1 398 1 397 -607 0 -608 0 0 -398 0 -398 69 1 69 1 -2
-676 -3 -675 -170 -1 c-93 0 -175 1 -180 3 -7 2 -10 231 -9 671 1 367 2 670 3
673 0 3 27 5 59 5 l57 -1 1 398 1 397 -601 0 -601 0 0 -395z"/>
</g>
</svg>
